<?xml version="1.0" encoding="utf-8"?>
<!-- Generator: Adobe Illustrator 24.1.2, SVG Export Plug-In . SVG Version: 6.00 Build 0)  -->
<svg version="1.1" xmlns="http://www.w3.org/2000/svg" xmlns:xlink="http://www.w3.org/1999/xlink" x="0px" y="0px"
	 viewBox="0 0 5000 5000" style="enable-background:new 0 0 5000 5000;" xml:space="preserve">
<style type="text/css">
	.st0{display:none;}
	.st1{display:inline;}
	.st2{fill:#FFFFFF;}
	.st3{fill:none;}
</style>
<g id="lOGO_bLACK_copy" class="st0">
	<g class="st1">
		<path class="st2" d="M1216.07,1492.83l-112.94-5.02c0,0.63-1.88,61.49-64,63.37c-29.49,0.63-51.45-19.45-64.63-48.94
			c-26.35-58.35-20.08-180.08,57.72-189.49c58.35-7.53,77.18,32,77.18,32.63l101.65-47.69c0-0.63-52.08-115.45-193.25-97.25
			c-161.25,20.71-203.92,219.6-146.82,348.23c14.87,33.08,36.05,61.75,63.48,82.19h212.35
			C1213.06,1581.42,1216.07,1493.29,1216.07,1492.83z"/>
		<path class="st2" d="M1559.9,1488.44v-290.51h-114.19v290.51c3.76,98.51-75.29,90.98-72.78,25.73l-112.31-4.39
			c-2.18,53.41,15.16,93.99,42.46,121.09h202.64C1537.85,1600.77,1559.9,1553.57,1559.9,1488.44z"/>
		<path class="st2" d="M1924.44,1489.07c-2.51-41.41-21.33-76.55-53.96-101.65c97.88-107.92-18.2-208.94-149.33-204.55l-113.57-1.25
			v449.25h226.84C1888.49,1604.23,1928.13,1557.27,1924.44,1489.07z M1721.15,1295.82c104.78-5.65,74.04,59.61-1.25,53.33
			L1721.15,1295.82z M1721.15,1544.91v-82.82C1841.62,1445.78,1840.99,1542.4,1721.15,1544.91z"/>
		<path class="st2" d="M2054.46,1543.53l71.23,0.97l0.48-90.61l-71.71-0.48v-55.72l102.24-1.45l-1.94-90.61
			c-63.96,1.45-124.05,0.97-188.98,0.97v324.29h88.67V1543.53z"/>
		<path class="st2" d="M2245.86,1598.28h89.16l7.27,32.59h88.26l-71.79-339.8h-119.2l-92.76,339.8h90.11L2245.86,1598.28z
			 M2295.77,1412.7l20.84,98.37h-47.49L2295.77,1412.7z"/>
		<path class="st2" d="M2733.8,1531.41l-87.22-3.88c0,0.48-1.45,47.49-49.43,48.94c-22.77,0.48-39.73-15.02-49.91-37.8
			c-20.35-45.06-15.51-139.07,44.58-146.34c45.06-5.81,59.6,24.71,59.6,25.2l78.5-36.83c0-0.48-40.22-89.16-149.24-75.11
			c-124.53,15.99-157.48,169.6-113.39,268.93c9.84,21.9,23.27,41.29,40.25,56.33h181.42
			C2731.75,1591.93,2733.8,1531.74,2733.8,1531.41z"/>
		<polygon class="st2" points="2920.84,1382.17 2982.86,1382.65 2983.35,1294.95 2760.45,1293.98 2759.96,1381.2 2834.1,1381.68 
			2834.1,1630.87 2920.84,1630.87 		"/>
		<path class="st2" d="M3293.95,1602.16c28.59-31.98,46.03-77.04,46.03-125.5c0-49.42-17.44-93.52-46.03-126.47
			c-30.53-34.4-72.68-55.24-119.69-55.24c-46.52,0-88.19,20.84-118.72,55.24c-28.59,32.95-47,77.04-47,126.47
			c0,48.46,18.41,93.52,47,125.5c9.76,11,20.67,20.65,32.5,28.71h173.27C3273.23,1622.81,3284.19,1613.16,3293.95,1602.16z
			 M3228.53,1544.5c-14.54,15.99-32.95,25.68-54.27,25.68c-20.35,0-39.73-9.69-53.3-25.68c-15.51-17.44-24.71-41.19-24.71-67.84
			c0-27.14,9.21-51.36,24.71-68.81c13.57-15.51,32.95-25.2,53.3-25.2c21.32,0,39.73,9.69,54.27,25.2
			c15.02,17.44,24.23,41.67,24.23,68.81C3252.76,1503.31,3243.56,1527.05,3228.53,1544.5z"/>
		<path class="st2" d="M3465.97,1605.55c9.3,9.12,20.75,17.94,34.65,25.32h100.92l-3.77-67.96c-35.37,2.42-57.18-6.78-70.26-17.93
			c47.97-26.17,79.95-74.62,78.01-129.38c-3.88-129.86-129.86-129.86-227.74-127.44v342.7h88.19V1605.55z M3465.97,1373.93
			c77.04,9.69,63.96,83.83,0,103.7V1373.93z"/>
		<polygon class="st2" points="3858.46,1293.01 3785.77,1426.26 3706.3,1294.95 3631.2,1340.98 3743.62,1525.11 3742.86,1630.87 
			3828.57,1630.87 3828.57,1660.78 3829.38,1660.79 3830.35,1526.57 3935.02,1334.68 		"/>
		<polygon class="st2" points="3743.72,1630.87 3602.36,1630.87 3501.41,1630.87 3466.75,1630.87 3378.53,1630.87 3262.03,1630.87 
			3088.71,1630.87 2921.45,1630.87 2834.69,1630.87 2689.51,1630.87 2508.04,1630.87 2431.02,1630.87 2342.73,1630.87 
			2237.32,1630.87 2147.19,1630.87 2054.82,1630.87 1966.12,1630.87 1834.72,1630.87 1607.81,1630.87 1505.92,1630.87 
			1303.21,1630.87 1146.89,1630.87 934.48,1630.87 845.63,1630.87 845.63,1675.89 3829.45,1675.89 3829.45,1660.78 3829.45,1630.87 
					"/>
	</g>
</g>
<g id="lOGO_bLACK_copy_2">
	<g>
		<polygon class="st3" points="2245.86,1598.28 2236.91,1630.87 2342.29,1630.87 2335.02,1598.28 		"/>
		<path class="st3" d="M3465.97,1630.87h34.65c-13.9-7.38-25.36-16.19-34.65-25.32V1630.87z"/>
		<path class="st3" d="M3465.97,1373.93v103.7C3529.93,1457.76,3543.01,1383.62,3465.97,1373.93z"/>
		<polygon class="st3" points="2295.77,1412.7 2269.11,1511.06 2316.6,1511.06 		"/>
		<path class="st3" d="M1721.15,1462.09v82.82C1840.99,1542.4,1841.62,1445.78,1721.15,1462.09z"/>
		<path class="st3" d="M3174.26,1382.65c-20.35,0-39.73,9.69-53.3,25.2c-15.51,17.44-24.71,41.67-24.71,68.81
			c0,26.65,9.21,50.39,24.71,67.84c13.57,15.99,32.95,25.68,53.3,25.68c21.32,0,39.73-9.69,54.27-25.68
			c15.02-17.44,24.23-41.19,24.23-67.84c0-27.14-9.21-51.36-24.23-68.81C3214,1392.34,3195.58,1382.65,3174.26,1382.65z"/>
		<path class="st3" d="M1721.15,1295.82l-1.25,53.33C1795.19,1355.42,1825.93,1290.17,1721.15,1295.82z"/>
		<path d="M1216.07,1492.83l-112.94-5.02c0,0.63-1.88,61.49-64,63.37c-29.49,0.63-51.45-19.45-64.63-48.94
			c-26.35-58.35-20.08-180.08,57.72-189.49c58.35-7.53,77.18,32,77.18,32.63l101.65-47.69c0-0.63-52.08-115.45-193.25-97.25
			c-161.25,20.71-203.92,219.6-146.82,348.23c14.87,33.08,36.05,61.75,63.48,82.19h212.35
			C1213.06,1581.42,1216.07,1493.29,1216.07,1492.83z"/>
		<path d="M1559.9,1488.44v-290.51h-114.19v290.51c3.76,98.51-75.29,90.98-72.78,25.73l-112.31-4.39
			c-2.18,53.41,15.16,93.99,42.46,121.09h202.64C1537.85,1600.77,1559.9,1553.57,1559.9,1488.44z"/>
		<path d="M1924.44,1489.07c-2.51-41.41-21.33-76.55-53.96-101.65c97.88-107.92-18.2-208.94-149.33-204.55l-113.57-1.25v449.25
			h226.84C1888.49,1604.23,1928.13,1557.27,1924.44,1489.07z M1721.15,1295.82c104.78-5.65,74.04,59.61-1.25,53.33L1721.15,1295.82z
			 M1721.15,1544.91v-82.82C1841.62,1445.78,1840.99,1542.4,1721.15,1544.91z"/>
		<path d="M2054.46,1543.53l71.23,0.97l0.48-90.61l-71.71-0.48v-55.72l102.24-1.45l-1.94-90.61c-63.96,1.45-124.05,0.97-188.98,0.97
			v324.29h88.67V1543.53z"/>
		<path d="M2245.86,1598.28h89.16l7.27,32.59h88.26l-71.79-339.8h-119.2l-92.76,339.8h90.11L2245.86,1598.28z M2295.77,1412.7
			l20.84,98.37h-47.49L2295.77,1412.7z"/>
		<path d="M2733.8,1531.41l-87.22-3.88c0,0.48-1.45,47.49-49.43,48.94c-22.77,0.48-39.73-15.02-49.91-37.8
			c-20.35-45.06-15.51-139.07,44.58-146.34c45.06-5.81,59.6,24.71,59.6,25.2l78.5-36.83c0-0.48-40.22-89.16-149.24-75.11
			c-124.53,15.99-157.48,169.6-113.39,268.93c9.84,21.9,23.27,41.29,40.25,56.33h181.42
			C2731.75,1591.93,2733.8,1531.74,2733.8,1531.41z"/>
		<polygon points="2920.84,1382.17 2982.86,1382.65 2983.35,1294.95 2760.45,1293.98 2759.96,1381.2 2834.1,1381.68 2834.1,1630.87 
			2920.84,1630.87 		"/>
		<path d="M3293.95,1602.16c28.59-31.98,46.03-77.04,46.03-125.5c0-49.42-17.44-93.52-46.03-126.47
			c-30.53-34.4-72.68-55.24-119.69-55.24c-46.52,0-88.19,20.84-118.72,55.24c-28.59,32.95-47,77.04-47,126.47
			c0,48.46,18.41,93.52,47,125.5c9.76,11,20.67,20.65,32.5,28.71h173.27C3273.23,1622.81,3284.19,1613.16,3293.95,1602.16z
			 M3228.53,1544.5c-14.54,15.99-32.95,25.68-54.27,25.68c-20.35,0-39.73-9.69-53.3-25.68c-15.51-17.44-24.71-41.19-24.71-67.84
			c0-27.14,9.21-51.36,24.71-68.81c13.57-15.51,32.95-25.2,53.3-25.2c21.32,0,39.73,9.69,54.27,25.2
			c15.02,17.44,24.23,41.67,24.23,68.81C3252.76,1503.31,3243.56,1527.05,3228.53,1544.5z"/>
		<path d="M3465.97,1605.55c9.3,9.12,20.75,17.94,34.65,25.32h100.92l-3.77-67.96c-35.37,2.42-57.18-6.78-70.26-17.93
			c47.97-26.17,79.95-74.62,78.01-129.38c-3.88-129.86-129.86-129.86-227.74-127.44v342.7h88.19V1605.55z M3465.97,1373.93
			c77.04,9.69,63.96,83.83,0,103.7V1373.93z"/>
		<polygon points="3858.46,1293.01 3785.77,1426.26 3706.3,1294.95 3631.2,1340.98 3743.62,1525.11 3742.86,1630.87 
			3828.57,1630.87 3828.57,1660.78 3829.38,1660.79 3830.35,1526.57 3935.02,1334.68 		"/>
		<polygon points="3742.86,1630.87 3601.54,1630.87 3500.62,1630.87 3465.97,1630.87 3377.78,1630.87 3261.32,1630.87 
			3088.05,1630.87 2920.84,1630.87 2834.1,1630.87 2688.96,1630.87 2507.54,1630.87 2430.55,1630.87 2342.29,1630.87 
			2236.91,1630.87 2146.8,1630.87 2054.46,1630.87 1965.78,1630.87 1834.43,1630.87 1607.58,1630.87 1505.72,1630.87 
			1303.08,1630.87 1146.8,1630.87 934.45,1630.87 845.63,1630.87 845.63,1675.89 3828.57,1675.89 3828.57,1660.78 3828.57,1630.87 
					"/>
	</g>
</g>
</svg>
